<?xml version="1.0" encoding="iso-8859-1"?>
<!-- Generator: Adobe Illustrator 17.1.0, SVG Export Plug-In . SVG Version: 6.00 Build 0)  -->
<!DOCTYPE svg PUBLIC "-//W3C//DTD SVG 1.1//EN" "http://www.w3.org/Graphics/SVG/1.1/DTD/svg11.dtd">
<svg xmlns="http://www.w3.org/2000/svg" xmlns:xlink="http://www.w3.org/1999/xlink" version="1.1" id="Capa_1" x="0px" y="0px" viewBox="0 0 475.8 475.8" style="enable-background:new 0 0 475.8 475.8;" xml:space="preserve" width="512px" height="512px">
<path d="M152.915,66.36c4.093-0.598,7.903,2.249,8.497,6.349c0.349,2.414,0.526,4.882,0.526,7.335c0,4.142-3.358,7.5-7.5,7.5  s-7.5-3.358-7.5-7.5c0-1.737-0.125-3.482-0.372-5.187C145.974,70.758,148.816,66.954,152.915,66.36z M138.029,56.4  c1.482,1.687,3.554,2.548,5.635,2.548c1.759,0,3.525-0.615,4.949-1.868c3.111-2.735,3.416-7.474,0.68-10.584  c-9.653-10.979-23.57-17.276-38.18-17.276c-4.142,0-7.5,3.358-7.5,7.5s3.358,7.5,7.5,7.5  C121.413,44.219,131.223,48.659,138.029,56.4z M303.554,146.579c-3.837-1.56-8.212,0.292-9.769,4.13  c-0.602,1.482-1.319,2.94-2.134,4.333c-2.091,3.576-0.888,8.169,2.688,10.26c1.19,0.696,2.493,1.027,3.779,1.027  c2.577,0,5.086-1.33,6.481-3.715c1.177-2.012,2.215-4.121,3.085-6.267C309.242,152.51,307.393,148.136,303.554,146.579z   M279.724,109.52c8.258,4.829,14.042,12.989,15.869,22.388c0.697,3.583,3.836,6.07,7.354,6.07c0.475,0,0.957-0.045,1.44-0.139  c4.066-0.791,6.721-4.728,5.931-8.794c-2.651-13.631-11.042-25.467-23.021-32.473c-3.575-2.091-8.169-0.887-10.26,2.688  C274.945,102.835,276.148,107.429,279.724,109.52z M376.911,301.952c1.227,0,2.471-0.302,3.62-0.937  c1.927-1.064,3.787-2.273,5.529-3.594c3.301-2.502,3.948-7.207,1.446-10.508c-2.502-3.3-7.206-3.95-10.508-1.446  c-1.171,0.888-2.423,1.702-3.722,2.419c-3.626,2.003-4.941,6.566-2.938,10.191C371.708,300.554,374.269,301.952,376.911,301.952z   M387.26,271.471c-1.399,3.898,0.626,8.193,4.525,9.593c0.837,0.3,1.692,0.443,2.533,0.443c3.076,0,5.96-1.907,7.06-4.968  c4.429-12.339,3.335-25.992-3.001-37.458c-2.004-3.625-6.566-4.94-10.192-2.937c-3.625,2.004-4.94,6.567-2.937,10.192  C389.499,254.029,390.232,263.19,387.26,271.471z M444.675,411.26c-0.722,17.946-8.39,34.537-21.59,46.717  c-12.52,11.552-28.596,17.823-45.531,17.823c-0.921,0-1.844-0.019-2.77-0.056c-26.623-1.071-50.009-17.824-59.765-42.265  l-11.631-0.468c-1.312,2.21-3.72,3.679-6.446,3.679c-0.102,0-0.204-0.002-0.307-0.006L170.236,431.6  c-12.22,20.857-34.881,34.797-60.541,34.797c-38.658,0-70.108-31.451-70.108-70.108c0-25.235,13.352-48.198,35.06-60.722V176.77  c0-3.184,1.987-5.897,4.786-6.986v-16.247C51.011,141.238,31.07,112.931,31.07,80.044C31.07,35.908,66.977,0,111.114,0  c44.137,0,80.044,35.908,80.044,80.044c0,32.066-19.229,60.954-48.363,73.515v16.225c2.799,1.089,4.786,3.802,4.786,6.986v89.849  l39.38-67.339c1.553-2.655,4.486-3.999,7.358-3.66l7.404-12.661c-5.526-7.568-9.654-16.172-12.1-25.51  c-5.13-19.58-2.328-39.986,7.89-57.458s26.628-29.92,46.208-35.049c19.58-5.129,39.985-2.329,57.458,7.89  c17.472,10.218,29.92,26.628,35.049,46.208c5.13,19.58,2.328,39.986-7.89,57.458c-13.746,23.504-38.917,37.536-65.47,37.538  c-2.953,0-5.921-0.194-8.892-0.548l-7.419,12.686c0.548,0.751,0.961,1.601,1.201,2.517c0.504,1.924,0.224,3.97-0.781,5.687  l-43.824,74.939l64.991-35.918c2.59-1.432,5.653-1.163,7.925,0.425l11.431-6.317c-0.776-8.669,0.034-17.493,2.516-26.107  c5.269-18.289,17.345-33.431,34.003-42.638c16.658-9.206,35.904-11.374,54.193-6.105c18.289,5.269,33.431,17.345,42.637,34.003  c19.005,34.388,6.49,77.826-27.897,96.831c-10.779,5.958-22.645,8.873-34.441,8.874c-15.349,0.001-30.576-4.949-43.179-14.538  l-11.449,6.328c0.041,0.819-0.044,1.646-0.275,2.448c-0.551,1.912-1.838,3.526-3.579,4.488l-72.474,40.054l71.6,2.881  c1.988,0.08,3.862,0.946,5.211,2.408c0.498,0.54,0.909,1.146,1.226,1.795l11.629,0.468c3.604-7.266,8.529-13.895,14.669-19.56  c13.201-12.179,30.359-18.482,48.301-17.768c17.947,0.722,34.538,8.39,46.717,21.59S445.397,393.313,444.675,411.26z   M198.648,369.981l87.561-48.392l-17.373-31.434l-119.954,66.294c-7.614,4.208-10.968,13.168-8.424,21.159  c3.547-3.516,7.929-6.178,12.827-7.676c0.157-2.47,1.525-4.811,3.852-6.097l11.722-6.478c3.626-2.003,8.189-0.688,10.192,2.937  c1.636,2.96,1.057,6.544-1.183,8.851L198.648,369.981z M283.999,286.581l1.293,2.34l12.01,21.731l15.223-8.413  c0.081-0.045,0.166-0.079,0.248-0.121c0.08-0.04,0.16-0.08,0.241-0.118c0.163-0.076,0.328-0.144,0.494-0.207  c0.047-0.017,0.093-0.035,0.14-0.052c0.204-0.072,0.408-0.135,0.615-0.189c0.009-0.002,0.019-0.005,0.028-0.007  c2.526-0.65,5.218,0.065,7.08,1.87c17.782,15.605,43.587,18.408,64.326,6.946c13.151-7.269,22.685-19.223,26.845-33.662  c4.16-14.439,2.448-29.633-4.82-42.785c-7.269-13.151-19.223-22.685-33.662-26.845c-14.438-4.16-29.633-2.448-42.785,4.82  c-27.149,15.004-37.029,49.298-22.025,76.446c2.004,3.625,0.689,8.188-2.936,10.192c-3.626,2.006-8.189,0.689-10.192-2.936  c-2.258-4.086-4.087-8.33-5.493-12.676L283.999,286.581z M204.133,153.647c2.295,8.76,6.42,16.726,12.048,23.483  c0.218,0.226,0.426,0.461,0.611,0.71c4.343,5.051,9.532,9.407,15.452,12.869c3.576,2.091,4.779,6.685,2.688,10.26  s-6.685,4.78-10.26,2.688c-4.477-2.618-8.618-5.648-12.397-9.029l-4.692,8.023l26.344,15.406l9.672-16.539  c0.046-0.079,0.1-0.15,0.149-0.227c0.049-0.078,0.099-0.155,0.151-0.23c0.1-0.145,0.204-0.285,0.312-0.421  c0.034-0.043,0.068-0.086,0.103-0.128c0.134-0.162,0.275-0.317,0.42-0.465c0.011-0.011,0.022-0.023,0.034-0.034  c1.841-1.849,4.523-2.608,7.049-2.004c25.134,4.669,50.648-6.983,63.573-29.085c16.917-28.929,7.146-66.228-21.783-83.146  c-14.014-8.195-30.379-10.444-46.084-6.328c-15.704,4.114-28.866,14.098-37.062,28.111S200.019,137.943,204.133,153.647z   M146.693,297.85c-0.036,0.068-0.078,0.133-0.117,0.199l-24.817,42.437c-4.764,8.146-3.01,18.326,3.652,24.483  c0.145-0.644,0.303-1.287,0.487-1.927c1.492-5.178,4.168-9.806,7.783-13.598c-0.653-1.974-0.495-4.207,0.638-6.143l7.24-12.381  c2.091-3.576,6.685-4.78,10.26-2.688c2.68,1.567,4.027,4.539,3.654,7.436l22.005-12.161l52.764-90.226l-34.121-19.954  L146.693,297.85z M132.581,292.268V184.27H89.646v155.67c0,0.019,0,0.037,0,0.056v1.259c0,10.103,7.024,18.576,16.439,20.848  c-2.296-6.474-2.674-13.592-0.896-20.416c-0.984-1.269-1.576-2.858-1.576-4.588v-15.239c0-4.142,3.358-7.5,7.5-7.5  c2.728,0,5.109,1.461,6.421,3.639L132.581,292.268z M94.433,158.327v10.942h33.363v-20.826c0-0.095,0.011-0.187,0.014-0.281  c0.003-0.085,0.007-0.171,0.013-0.256c0.013-0.184,0.034-0.365,0.06-0.545c0.007-0.045,0.013-0.089,0.02-0.134  c0.036-0.218,0.08-0.432,0.134-0.643c0.001-0.005,0.002-0.009,0.004-0.014c0.652-2.533,2.588-4.55,5.078-5.304  c25.756-9.258,43.039-33.814,43.039-61.223c0-35.865-29.179-65.044-65.044-65.044C75.248,15,46.07,44.179,46.07,80.044  c0,35.866,29.179,65.044,65.044,65.044c4.142,0,7.5,3.358,7.5,7.5s-3.358,7.5-7.5,7.5  C105.394,160.088,99.816,159.473,94.433,158.327z M153.341,429.883c-13.276-4.081-22.707-16.718-22.124-31.233  c0.079-1.966,0.344-3.878,0.762-5.73c-1.216-1.502-2.312-3.104-3.256-4.812c-0.926-1.675-1.688-3.409-2.304-5.18  c-1.772-0.679-3.497-1.49-5.149-2.456c-1.633-0.955-3.155-2.028-4.57-3.194c-1.843,0.284-3.709,0.442-5.586,0.442  c-16.233,0-30.018-10.665-34.73-25.354c-13.635,10.316-21.797,26.426-21.797,43.921c0,30.387,24.721,55.108,55.108,55.108  C127.364,451.396,143.221,442.985,153.341,429.883z M176.723,416.848l113.02,4.547l1.315-32.685l-127.853-5.144  c-0.226-0.009-0.45-0.014-0.674-0.014c-8.801,0-15.972,6.896-16.326,15.699c-0.351,8.738,6.261,16.154,14.88,16.926  c1.119-2.885,2.005-5.885,2.628-8.985c-3.15-0.992-5.379-3.99-5.24-7.448c0.167-4.139,3.657-7.348,7.796-7.192l6.202,0.25  c0.06,0.002,0.119-0.002,0.179,0.002c0.025,0.002,0.049,0.007,0.073,0.008l6.086,0.245c4.139,0.167,7.359,3.657,7.192,7.796  c-0.159,3.935-3.323,7.03-7.19,7.184C178.303,411.045,177.602,413.986,176.723,416.848z M415.883,373.131  c-9.462-10.256-22.353-16.213-36.295-16.774c-28.807-1.184-53.143,21.316-54.3,50.1c-0.167,4.139-3.672,7.35-7.795,7.193  c-4.139-0.167-7.359-3.657-7.193-7.795c0.169-4.208,0.735-8.338,1.65-12.358l-6.061-0.244l-0.96,23.864l-0.038,0.944l15.814,0.636  c0.098,0.004,0.193,0.019,0.289,0.026c0.082,0.007,0.163,0.013,0.244,0.022c0.185,0.021,0.367,0.049,0.547,0.082  c0.044,0.008,0.088,0.016,0.132,0.026c0.215,0.044,0.425,0.097,0.632,0.159c0.008,0.002,0.016,0.005,0.024,0.007  c2.496,0.754,4.428,2.76,5.085,5.269c6.612,20.943,25.749,35.584,47.729,36.468c13.951,0.572,27.271-4.341,37.526-13.804  c10.256-9.462,16.213-22.353,16.774-36.295C430.247,396.714,425.346,383.387,415.883,373.131z M380.445,436.585  c-1.349,0.14-2.726,0.184-4.091,0.128c-4.124-0.163-7.628,3.054-7.795,7.193c-0.166,4.139,3.054,7.629,7.193,7.795  c0.582,0.023,1.166,0.035,1.75,0.035c1.503,0,3.009-0.077,4.494-0.231c4.12-0.428,7.113-4.115,6.685-8.235  C388.251,439.149,384.557,436.153,380.445,436.585z M405.643,409.689c-0.326,8.094-4.125,15.665-10.425,20.769  c-3.218,2.608-3.712,7.331-1.105,10.549c1.482,1.829,3.647,2.778,5.832,2.778c1.659,0,3.329-0.547,4.717-1.673  c9.649-7.82,15.47-19.417,15.97-31.82c0.167-4.139-3.054-7.629-7.192-7.796C409.293,402.335,405.81,405.551,405.643,409.689z" fill="#FFFFFF"/>
<g>
</g>
<g>
</g>
<g>
</g>
<g>
</g>
<g>
</g>
<g>
</g>
<g>
</g>
<g>
</g>
<g>
</g>
<g>
</g>
<g>
</g>
<g>
</g>
<g>
</g>
<g>
</g>
<g>
</g>
</svg>
