<?xml version="1.0" encoding="iso-8859-1"?>
<!-- Generator: Adobe Illustrator 18.0.0, SVG Export Plug-In . SVG Version: 6.00 Build 0)  -->
<!DOCTYPE svg PUBLIC "-//W3C//DTD SVG 1.1//EN" "http://www.w3.org/Graphics/SVG/1.1/DTD/svg11.dtd">
<svg xmlns="http://www.w3.org/2000/svg" xmlns:xlink="http://www.w3.org/1999/xlink" version="1.1" id="Capa_1" x="0px" y="0px" viewBox="0 0 297.001 297.001" style="enable-background:new 0 0 297.001 297.001;" xml:space="preserve" width="512px" height="512px">
<g>
	<path d="M275.389,182.433H21.223c-5.316,0-9.627,4.311-9.627,9.628c0,26.166,14.921,52.787,40.936,73.036   c26.431,20.573,60.444,31.903,95.774,31.903c35.33,0,69.343-11.33,95.775-31.903c26.015-20.249,40.935-46.87,40.935-73.036   C285.016,186.745,280.705,182.433,275.389,182.433z M232.253,249.903c-23.066,17.954-52.879,27.843-83.946,27.843   c-31.067,0-60.881-9.889-83.947-27.843c-17.927-13.952-29.416-31.098-32.603-48.215h233.099   C261.67,218.805,250.18,235.951,232.253,249.903z" fill="#FFFFFF"/>
	<path d="M36.998,153.811c8.349,15.616,24.543,25.316,42.263,25.316c7.817,0,15.612-1.958,22.543-5.663l87.06-46.542   c2.251-1.204,3.933-3.253,4.673-5.696c0.741-2.444,0.481-5.082-0.722-7.334l-9.147-17.112l96.649-51.67   c2.251-1.203,3.933-3.252,4.674-5.695c0.74-2.444,0.482-5.082-0.724-7.334L269.836,5.09c-2.506-4.688-8.341-6.459-13.029-3.951   l-96.647,51.67l-9.079-16.982c-2.507-4.689-8.341-6.457-13.03-3.952L17.252,96.454c-2.252,1.205-3.933,3.253-4.674,5.697   c-0.741,2.443-0.481,5.081,0.723,7.333L36.998,153.811z M257.395,22.659l5.352,10.011l-131.469,70.285l-5.351-10.011   L257.395,22.659z M138.638,53.395l4.54,8.492l-34.819,18.615c-2.252,1.204-3.934,3.252-4.674,5.696   c-0.741,2.443-0.482,5.081,0.723,7.333l14.43,26.991c1.734,3.243,5.061,5.09,8.499,5.09c1.531,0,3.085-0.367,4.53-1.14   l34.819-18.614l4.609,8.621l-78.569,42.004c-4.206,2.249-8.737,3.389-13.465,3.389c-10.602,0-20.289-5.801-25.282-15.14   L34.82,108.896L138.638,53.395z" fill="#FFFFFF"/>
</g>
<g>
</g>
<g>
</g>
<g>
</g>
<g>
</g>
<g>
</g>
<g>
</g>
<g>
</g>
<g>
</g>
<g>
</g>
<g>
</g>
<g>
</g>
<g>
</g>
<g>
</g>
<g>
</g>
<g>
</g>
</svg>
